<svg width="1200" height="900" viewBox="0 0 1200 900" fill="none" xmlns="http://www.w3.org/2000/svg">
  <defs>
    <linearGradient id="bg" x1="120" y1="40" x2="1080" y2="860" gradientUnits="userSpaceOnUse">
      <stop stop-color="#0D1830"/>
      <stop offset="1" stop-color="#152748"/>
    </linearGradient>
    <radialGradient id="pinkGlow" cx="0" cy="0" r="1" gradientUnits="userSpaceOnUse" gradientTransform="translate(840 280) rotate(132) scale(460 390)">
      <stop stop-color="#FF75AF" stop-opacity="0.5"/>
      <stop offset="1" stop-color="#FF75AF" stop-opacity="0"/>
    </radialGradient>
    <radialGradient id="cyanGlow" cx="0" cy="0" r="1" gradientUnits="userSpaceOnUse" gradientTransform="translate(300 720) rotate(-20) scale(360 190)">
      <stop stop-color="#8EF1FF" stop-opacity="0.24"/>
      <stop offset="1" stop-color="#8EF1FF" stop-opacity="0"/>
    </radialGradient>
    <linearGradient id="edge" x1="286" y1="236" x2="898" y2="670" gradientUnits="userSpaceOnUse">
      <stop stop-color="#9BEFFF"/>
      <stop offset="0.52" stop-color="#F6A7CC"/>
      <stop offset="1" stop-color="#B5C4FF"/>
    </linearGradient>
    <linearGradient id="screen" x1="428" y1="278" x2="770" y2="530" gradientUnits="userSpaceOnUse">
      <stop stop-color="#0E1E3A"/>
      <stop offset="1" stop-color="#132950"/>
    </linearGradient>
  </defs>

  <rect width="1200" height="900" rx="34" fill="url(#bg)"/>
  <rect width="1200" height="900" rx="34" fill="url(#pinkGlow)"/>
  <rect width="1200" height="900" rx="34" fill="url(#cyanGlow)"/>

  <g opacity="0.32" stroke="#CFE8FF" stroke-width="1.4">
    <path d="M144 212H1050"/>
    <path d="M144 450H1050"/>
    <path d="M144 688H1050"/>
  </g>

  <g>
    <rect x="274" y="196" width="652" height="470" rx="32" fill="#B8ABA8"/>
    <rect x="302" y="226" width="596" height="408" rx="24" fill="#9D908D"/>
    <rect x="388" y="276" width="424" height="294" rx="20" fill="url(#screen)" stroke="url(#edge)" stroke-opacity="0.42" stroke-width="2"/>
    <rect x="328" y="598" width="544" height="24" rx="8" fill="#8F8280"/>
    <rect x="486" y="624" width="236" height="18" rx="8" fill="#7B6F6D"/>
  </g>

  <g>
    <path d="M452 424H748" stroke="url(#edge)" stroke-opacity="0.82" stroke-width="2.8" stroke-linecap="round"/>
    <rect x="454" y="374" width="62" height="100" rx="12" fill="#142B50" stroke="#93EDFF" stroke-opacity="0.72" stroke-width="2"/>
    <rect x="568" y="350" width="84" height="148" rx="14" fill="#14294B" stroke="#F6A7CC" stroke-opacity="0.78" stroke-width="2"/>
    <rect x="698" y="330" width="110" height="188" rx="16" fill="#12274A" stroke="#90EBFF" stroke-opacity="0.72" stroke-width="2"/>
    <path d="M528 360L568 424L528 488" stroke="#D9E8FF" stroke-width="2.8" stroke-linecap="round"/>
    <path d="M662 342L698 424L662 506" stroke="#F6A7CC" stroke-width="2.8" stroke-linecap="round"/>
  </g>

  <g fill="#FFD5E7">
    <circle cx="485" cy="424" r="5.2"/>
    <circle cx="610" cy="424" r="5.2"/>
    <circle cx="753" cy="424" r="5.2"/>
  </g>
</svg>
