<svg width="1200" height="760" viewBox="0 0 1200 760" fill="none" xmlns="http://www.w3.org/2000/svg">
  <rect width="1200" height="760" rx="36" fill="#0B1527"/>
  <rect x="84" y="92" width="1032" height="576" rx="28" fill="#0F1A2C" stroke="rgba(199,221,255,0.14)"/>
  <rect x="148" y="144" width="904" height="86" rx="18" fill="#14233C"/>
  <text x="188" y="197" fill="#FFFFFF" font-family="Arial, sans-serif" font-size="30" font-weight="700">Enterprise capability map</text>

  <g>
    <rect x="150" y="276" width="236" height="130" rx="20" fill="#111D31" stroke="#81B5FF"/>
    <text x="180" y="327" fill="#FFFFFF" font-family="Arial, sans-serif" font-size="28" font-weight="700">CX</text>
    <text x="180" y="359" fill="#A9B6D2" font-family="Arial, sans-serif" font-size="18">Contact center</text>
    <text x="180" y="387" fill="#A9B6D2" font-family="Arial, sans-serif" font-size="18">Digital service</text>
  </g>

  <g>
    <rect x="418" y="276" width="236" height="130" rx="20" fill="#111D31" stroke="#81B5FF"/>
    <text x="448" y="327" fill="#FFFFFF" font-family="Arial, sans-serif" font-size="28" font-weight="700">CRM</text>
    <text x="448" y="359" fill="#A9B6D2" font-family="Arial, sans-serif" font-size="18">Revenue workflows</text>
    <text x="448" y="387" fill="#A9B6D2" font-family="Arial, sans-serif" font-size="18">Service operations</text>
  </g>

  <g>
    <rect x="686" y="276" width="236" height="130" rx="20" fill="#111D31" stroke="#81B5FF"/>
    <text x="716" y="327" fill="#FFFFFF" font-family="Arial, sans-serif" font-size="28" font-weight="700">ITSM</text>
    <text x="716" y="359" fill="#A9B6D2" font-family="Arial, sans-serif" font-size="18">Workflow design</text>
    <text x="716" y="387" fill="#A9B6D2" font-family="Arial, sans-serif" font-size="18">Automation</text>
  </g>

  <g>
    <rect x="284" y="452" width="300" height="140" rx="20" fill="#111D31" stroke="#C89A67"/>
    <text x="318" y="506" fill="#FFFFFF" font-family="Arial, sans-serif" font-size="30" font-weight="700">Collaboration</text>
    <text x="318" y="540" fill="#A9B6D2" font-family="Arial, sans-serif" font-size="18">Communications strategy</text>
    <text x="318" y="568" fill="#A9B6D2" font-family="Arial, sans-serif" font-size="18">Deployment governance</text>
  </g>

  <g>
    <rect x="614" y="452" width="300" height="140" rx="20" fill="#111D31" stroke="#C89A67"/>
    <text x="648" y="506" fill="#FFFFFF" font-family="Arial, sans-serif" font-size="30" font-weight="700">AI Layer</text>
    <text x="648" y="540" fill="#A9B6D2" font-family="Arial, sans-serif" font-size="18">Copilots and agents</text>
    <text x="648" y="568" fill="#A9B6D2" font-family="Arial, sans-serif" font-size="18">Controls and measurement</text>
  </g>

  <text x="84" y="710" fill="#C7DDFF" font-family="Arial, sans-serif" font-size="16" letter-spacing="2">REPLACEABLE PLACEHOLDER VISUAL</text>
</svg>