<svg width="1400" height="900" viewBox="0 0 1400 900" fill="none" xmlns="http://www.w3.org/2000/svg">
  <defs>
    <linearGradient id="bg3" x1="100" y1="52" x2="1280" y2="842" gradientUnits="userSpaceOnUse">
      <stop stop-color="#0B1730"/>
      <stop offset="1" stop-color="#14264A"/>
    </linearGradient>
    <radialGradient id="pink3" cx="0" cy="0" r="1" gradientUnits="userSpaceOnUse" gradientTransform="translate(940 240) rotate(130) scale(490 410)">
      <stop stop-color="#FF74AE" stop-opacity="0.53"/>
      <stop offset="1" stop-color="#FF74AE" stop-opacity="0"/>
    </radialGradient>
    <linearGradient id="line3" x1="300" y1="462" x2="1100" y2="462" gradientUnits="userSpaceOnUse">
      <stop stop-color="#96EDFF"/>
      <stop offset="0.55" stop-color="#F7A8CD"/>
      <stop offset="1" stop-color="#B5C4FF"/>
    </linearGradient>
  </defs>

  <rect width="1400" height="900" rx="34" fill="url(#bg3)"/>
  <rect width="1400" height="900" rx="34" fill="url(#pink3)"/>

  <g opacity="0.3" stroke="#CEE8FF" stroke-width="1.4">
    <path d="M180 260H1220"/>
    <path d="M180 462H1220"/>
    <path d="M180 664H1220"/>
  </g>

  <g>
    <rect x="274" y="322" width="214" height="282" rx="22" fill="#13274C" stroke="#9DEFFF" stroke-opacity="0.62" stroke-width="2"/>
    <rect x="586" y="288" width="244" height="348" rx="24" fill="#13264B" stroke="#F6A8CD" stroke-opacity="0.66" stroke-width="2"/>
    <rect x="924" y="248" width="186" height="428" rx="22" fill="#13254A" stroke="#A7F1FF" stroke-opacity="0.62" stroke-width="2"/>
  </g>

  <path d="M356 462H924" stroke="url(#line3)" stroke-width="3" stroke-linecap="round"/>
  <path d="M492 376L586 462L492 548" stroke="#D9E8FF" stroke-width="2.5" stroke-linecap="round"/>
  <path d="M846 356L924 462L846 568" stroke="#F7A8CD" stroke-width="2.5" stroke-linecap="round"/>

  <g fill="#FFD5E8">
    <circle cx="382" cy="462" r="6"/>
    <circle cx="708" cy="462" r="6"/>
    <circle cx="1018" cy="462" r="6"/>
  </g>
</svg>
