<svg width="1400" height="900" viewBox="0 0 1400 900" fill="none" xmlns="http://www.w3.org/2000/svg">
  <defs>
    <linearGradient id="bg3" x1="100" y1="42" x2="1290" y2="852" gradientUnits="userSpaceOnUse">
      <stop stop-color="#0A1630"/>
      <stop offset="1" stop-color="#13264A"/>
    </linearGradient>
    <radialGradient id="glow3" cx="0" cy="0" r="1" gradientUnits="userSpaceOnUse" gradientTransform="translate(992 210) rotate(130) scale(540 420)">
      <stop stop-color="#FF77B1" stop-opacity="0.54"/>
      <stop offset="1" stop-color="#FF77B1" stop-opacity="0"/>
    </radialGradient>
    <linearGradient id="ringStroke" x1="454" y1="450" x2="946" y2="450" gradientUnits="userSpaceOnUse">
      <stop stop-color="#9DEFFF"/>
      <stop offset="0.54" stop-color="#F7A8CD"/>
      <stop offset="1" stop-color="#B6C6FF"/>
    </linearGradient>
    <filter id="ringBlur" x="-40%" y="-40%" width="180%" height="180%" color-interpolation-filters="sRGB">
      <feGaussianBlur stdDeviation="9"/>
    </filter>
  </defs>

  <rect width="1400" height="900" rx="34" fill="url(#bg3)"/>
  <rect width="1400" height="900" rx="34" fill="url(#glow3)"/>

  <g opacity="0.28" stroke="#D5E8FF" stroke-width="1.2">
    <path d="M170 260H1230"/>
    <path d="M170 450H1230"/>
    <path d="M170 640H1230"/>
  </g>

  <circle cx="700" cy="450" r="246" fill="#112345" fill-opacity="0.48" stroke="url(#ringStroke)" stroke-width="2.8"/>
  <circle cx="700" cy="450" r="178" fill="#13274B" fill-opacity="0.38" stroke="#CFE6FF" stroke-opacity="0.6" stroke-width="2.2"/>
  <circle cx="700" cy="450" r="112" fill="#14284D" stroke="#F7A8CD" stroke-opacity="0.76" stroke-width="2.2"/>

  <circle cx="700" cy="450" r="78" fill="#0F2141"/>
  <circle cx="700" cy="450" r="8" fill="#FFD9EB" filter="url(#ringBlur)"/>

  <path d="M700 204V338" stroke="#9DEFFF" stroke-opacity="0.7" stroke-width="2" stroke-linecap="round"/>
  <path d="M914 450H780" stroke="#F7A8CD" stroke-opacity="0.7" stroke-width="2" stroke-linecap="round"/>
  <path d="M700 696V562" stroke="#B7C6FF" stroke-opacity="0.7" stroke-width="2" stroke-linecap="round"/>
  <path d="M486 450H620" stroke="#9DEFFF" stroke-opacity="0.7" stroke-width="2" stroke-linecap="round"/>

  <g fill="#13274B" stroke="#A2F1FF" stroke-opacity="0.64" stroke-width="2">
    <circle cx="700" cy="184" r="36"/>
    <circle cx="936" cy="450" r="36"/>
    <circle cx="700" cy="716" r="36"/>
    <circle cx="464" cy="450" r="36"/>
  </g>

  <g fill="#FFD8EA">
    <circle cx="700" cy="184" r="6"/>
    <circle cx="936" cy="450" r="6"/>
    <circle cx="700" cy="716" r="6"/>
    <circle cx="464" cy="450" r="6"/>
  </g>

  <g fill="#CBDCF7" font-family="Manrope, sans-serif" font-size="23" font-weight="600" opacity="0.88" text-anchor="middle">
    <text x="700" y="126">Customer Signals</text>
    <text x="1062" y="458">Routing Intelligence</text>
    <text x="700" y="810">Automation Actions</text>
    <text x="332" y="458">Agent Assist</text>
    <text x="700" y="456">CX Core</text>
  </g>
</svg>
