<svg width="1200" height="760" viewBox="0 0 1200 760" fill="none" xmlns="http://www.w3.org/2000/svg">
  <rect width="1200" height="760" rx="36" fill="#0B1527"/>
  <rect x="98" y="98" width="1004" height="564" rx="28" fill="#0F1A2C" stroke="rgba(199,221,255,0.14)"/>
  <circle cx="358" cy="332" r="116" fill="#13233C"/>
  <circle cx="358" cy="290" r="56" fill="#1C3050"/>
  <path d="M270 438C286 390 320 366 358 366C396 366 430 390 446 438V460H270V438Z" fill="#1C3050"/>
  <rect x="560" y="220" width="410" height="62" rx="18" fill="#111D31"/>
  <rect x="560" y="306" width="350" height="20" rx="10" fill="#233A5D"/>
  <rect x="560" y="346" width="386" height="20" rx="10" fill="#233A5D"/>
  <rect x="560" y="386" width="320" height="20" rx="10" fill="#233A5D"/>
  <rect x="560" y="468" width="168" height="54" rx="16" fill="#111D31" stroke="#81B5FF"/>
  <rect x="750" y="468" width="168" height="54" rx="16" fill="#111D31" stroke="#C89A67"/>
  <text x="560" y="182" fill="#C7DDFF" font-family="Arial, sans-serif" font-size="16" letter-spacing="2">LEADERSHIP / TEAM IMAGE PLACEHOLDER</text>
</svg>