<svg width="960" height="600" viewBox="0 0 960 600" fill="none" xmlns="http://www.w3.org/2000/svg">
  <defs>
    <linearGradient id="im-bg" x1="90" y1="22" x2="874" y2="578" gradientUnits="userSpaceOnUse">
      <stop stop-color="#0E1B31"/>
      <stop offset="1" stop-color="#15243F"/>
    </linearGradient>
    <radialGradient id="im-pink" cx="0" cy="0" r="1" gradientUnits="userSpaceOnUse" gradientTransform="translate(738 180) rotate(130) scale(320 300)">
      <stop stop-color="#FF74AE" stop-opacity="0.4"/>
      <stop offset="1" stop-color="#FF74AE" stop-opacity="0"/>
    </radialGradient>
    <linearGradient id="im-link" x1="224" y1="300" x2="740" y2="300" gradientUnits="userSpaceOnUse">
      <stop stop-color="#9BEFFF"/>
      <stop offset="0.56" stop-color="#F8A7CC"/>
      <stop offset="1" stop-color="#B5C3FF"/>
    </linearGradient>
  </defs>

  <rect width="960" height="600" rx="34" fill="url(#im-bg)"/>
  <rect width="960" height="600" rx="34" fill="url(#im-pink)"/>

  <rect x="132" y="116" width="696" height="368" rx="22" fill="#0C1731" fill-opacity="0.68" stroke="#D7EAFF" stroke-opacity="0.23"/>

  <g fill="#122444" stroke="#9FEFFF" stroke-opacity="0.56" stroke-width="1.3">
    <rect x="194" y="166" width="168" height="76" rx="12"/>
    <rect x="194" y="262" width="168" height="76" rx="12"/>
    <rect x="194" y="358" width="168" height="76" rx="12"/>

    <rect x="424" y="144" width="180" height="92" rx="12" stroke="#F7A8CD" stroke-opacity="0.6"/>
    <rect x="424" y="254" width="180" height="92" rx="12"/>
    <rect x="424" y="364" width="180" height="92" rx="12"/>

    <rect x="664" y="206" width="102" height="188" rx="12"/>
  </g>

  <g stroke="url(#im-link)" stroke-width="2" stroke-linecap="round" opacity="0.84">
    <path d="M362 204H424"/>
    <path d="M362 300H424"/>
    <path d="M362 396H424"/>
    <path d="M604 190H664"/>
    <path d="M604 300H664"/>
    <path d="M604 410H664"/>
  </g>

  <g fill="#FFD6E8">
    <circle cx="424" cy="204" r="4.5"/>
    <circle cx="424" cy="300" r="4.5"/>
    <circle cx="424" cy="396" r="4.5"/>
    <circle cx="664" cy="300" r="4.5"/>
  </g>
</svg>
